PathFileType	4	(X/Y/Z)	./resultDataOpenSim/trcMotMarkerGrf/sub10/qtm-15-03.trc
DataRate	CameraRate	NumFrames	NumMarkers	Units	OrigDataRate	OrigDataStartFrame	OrigNumFrames
250.000000	250.000000	14	24	m	250.000000	305	487
Frame#	Time	L.Toe.Tip			R.Toe.Tip			L.Ankle.Lat			R.Ankle.Lat			L.Ankle.Med			R.Ankle.Med			L.Heel			R.Heel			L.Knee.Lat			R.Knee.Lat			L.Knee.Med			R.Knee.Med			L.Thigh.Upper			R.Thigh.Upper			L.ASIS			R.ASIS			V.Sacral			L.Acromium			R.Acromium			C7			L.Elbow			R.Elbow			L.Wrist.Lat			R.Wrist.Lat
		X1	Y1	Z1	X2	Y2	Z2	X3	Y3	Z3	X4	Y4	Z4	X5	Y5	Z5	X6	Y6	Z6	X7	Y7	Z7	X8	Y8	Z8	X9	Y9	Z9	X10	Y10	Z10	X11	Y11	Z11	X12	Y12	Z12	X13	Y13	Z13	X14	Y14	Z14	X15	Y15	Z15	X16	Y16	Z16	X17	Y17	Z17	X18	Y18	Z18	X19	Y19	Z19	X20	Y20	Z20	X21	Y21	Z21	X22	Y22	Z22	X23	Y23	Z23	X24	Y24	Z24

305	1.216	0.12658416	0.02149959	-0.15518821	0.8687188	0.03944211	-0.093748898	0.13532628	0.15628813	-0.21459853	0.72421654	0.053336668	-0.073988533	0.17590956	0.15453036	-0.13982282	0.75343474	0.07830898	-0.15596882	0.10449886	0.2125826	-0.16595283	0.67596421	0.030307285	-0.12377951	0.47477925	0.3159356	-0.28043627	0.83699604	0.41603474	-0.029745327	0.50000071	0.27546495	-0.16639423	0.8519071	0.4413919	-0.15505282	0.53726801	0.68634006	-0.30056671	0.62879137	0.75594229	0.074166736	0.61524394	0.79798355	-0.24866554	0.67154396	0.83485806	-0.0093860126	0.44789503	0.83563027	-0.097263276	0.68054771	1.2933385	-0.22307238	0.59047665	1.3119141	0.04933638	0.56713322	1.3260401	-0.10513307	0.72322385	1.0045838	-0.42085746	0.3326863	1.1277747	0.16145484	0.97565729	0.99594467	-0.3922128	0.22193915	1.1707719	0.38452585
306	1.22	0.13597686	0.027039905	-0.15879319	0.86868475	0.039431959	-0.093626272	0.14586951	0.16214977	-0.21645052	0.72427259	0.05326073	-0.073969575	0.18607469	0.15949922	-0.14153402	0.75368265	0.078240967	-0.15590675	0.11515789	0.21834774	-0.16718681	0.6759495	0.030404412	-0.12387443	0.48764331	0.3151628	-0.28237822	0.84156753	0.41504992	-0.029379702	0.512639	0.27460604	-0.1677811	0.85596408	0.44044859	-0.15474424	0.54506993	0.68555102	-0.3005747	0.63403447	0.75564715	0.074477443	0.62124186	0.79745031	-0.24874906	0.67655776	0.83453215	-0.0088047836	0.45306974	0.83470121	-0.098042605	0.68684797	1.2920806	-0.22352153	0.5967989	1.3107844	0.049078517	0.57302127	1.3253411	-0.10554801	0.72538437	1.0019122	-0.42033549	0.34105634	1.1230041	0.16128816	0.97755567	0.98895575	-0.39415303	0.22940625	1.16222	0.3844197
307	1.224	0.1455804	0.032549414	-0.16245198	0.8686329	0.03941974	-0.093507225	0.15675339	0.16793901	-0.21844577	0.72427919	0.053217638	-0.073975301	0.19649198	0.1644738	-0.14332449	0.75389667	0.078183251	-0.15587316	0.12620151	0.22406257	-0.16848177	0.67592485	0.030500281	-0.12400515	0.50058262	0.31455703	-0.28429081	0.84618169	0.41411584	-0.028913563	0.52524744	0.27400383	-0.16913742	0.85997518	0.43957059	-0.15442452	0.55273079	0.68487833	-0.30067975	0.63925905	0.75527656	0.07466819	0.62710175	0.79701194	-0.24893881	0.68158775	0.83418799	-0.0083600687	0.45843168	0.83435361	-0.099028753	0.6930738	1.2908854	-0.22406013	0.6030356	1.3096882	0.048801773	0.57888235	1.3246856	-0.10600357	0.72737362	0.99932821	-0.41977252	0.34947217	1.1182542	0.16111137	0.97906661	0.98198438	-0.39637662	0.23703081	1.1535417	0.38431905
308	1.228	0.15537732	0.038007777	-0.1661767	0.86857584	0.039403863	-0.093379804	0.1679491	0.17363498	-0.22054319	0.72426913	0.053185859	-0.073988412	0.20716429	0.16941328	-0.14518705	0.75409928	0.078138396	-0.155844	0.13762649	0.22970294	-0.16986354	0.6759036	0.030599374	-0.12415021	0.51355757	0.31407561	-0.28619623	0.85080675	0.4132212	-0.028353402	0.53779619	0.27362087	-0.17058016	0.86395126	0.43869176	-0.15409937	0.5602394	0.68433076	-0.30086179	0.6444453	0.75483365	0.074748205	0.63298733	0.79665818	-0.24922782	0.68662298	0.83382344	-0.0080590322	0.46404273	0.83430915	-0.099909372	0.69921453	1.2897619	-0.22469011	0.60918584	1.3086381	0.04850931	0.58471152	1.3240872	-0.10649368	0.72921595	0.99687045	-0.41920799	0.35792728	1.1135292	0.16091831	0.98042087	0.97510999	-0.39855522	0.244795	1.1447597	0.38419942
309	1.232	0.16535139	0.043395828	-0.16996687	0.86852828	0.039387695	-0.093235428	0.17934805	0.17925735	-0.22262626	0.72427288	0.053149674	-0.073998284	0.21810508	0.17424395	-0.14710277	0.75431445	0.078104336	-0.15580192	0.14939211	0.23524988	-0.17132004	0.67589806	0.030706402	-0.12429259	0.52655279	0.31369225	-0.28810366	0.85540298	0.41235157	-0.02771981	0.55024955	0.27344861	-0.17214163	0.86791143	0.43777015	-0.15372869	0.56757165	0.68392601	-0.30109053	0.64957847	0.75433554	0.074740293	0.63898955	0.79635407	-0.24956239	0.69164862	0.83345174	-0.0079001655	0.46983608	0.83425058	-0.10041718	0.70525362	1.2887243	-0.22541432	0.6152576	1.3076495	0.048210139	0.59050477	1.3235392	-0.10700056	0.73093608	0.99460172	-0.41869831	0.36641867	1.1088445	0.16069636	0.98175871	0.96829569	-0.40046866	0.2526852	1.135894	0.38403869
310	1.236	0.17549872	0.048692646	-0.17380218	0.86849847	0.039375854	-0.093074995	0.19085648	0.18484145	-0.22462814	0.72430427	0.053105771	-0.074001411	0.22932244	0.17887747	-0.14905093	0.75455695	0.078069985	-0.15574526	0.16142967	0.24068358	-0.17281521	0.67591533	0.030821752	-0.12442468	0.53956122	0.31340917	-0.29001547	0.85992155	0.41149058	-0.027039216	0.56256422	0.27347226	-0.17385361	0.87185224	0.43677165	-0.15328823	0.57470177	0.68367465	-0.30134176	0.65464664	0.75379322	0.074670451	0.64506933	0.79608463	-0.2498845	0.69666583	0.83309634	-0.0078652356	0.47563117	0.83401244	-0.10053826	0.71118226	1.2877845	-0.22622816	0.62125425	1.30673	0.047910628	0.59626601	1.3230182	-0.10751606	0.73254535	0.99254271	-0.41827851	0.37494348	1.1042196	0.16042813	0.98307731	0.96146942	-0.40210502	0.26070037	1.126964	0.38382088
311	1.24	0.18583335	0.053870865	-0.17765465	0.86848463	0.039369417	-0.092906627	0.20248828	0.19036477	-0.22660942	0.72436097	0.053058222	-0.073998965	0.24079376	0.18326967	-0.15102531	0.75482825	0.078027715	-0.15568096	0.1736716	0.245975	-0.17434417	0.67595562	0.030942916	-0.12454639	0.55257137	0.31324199	-0.29192904	0.86430546	0.41061516	-0.026340938	0.57470798	0.2736449	-0.17576886	0.87574401	0.43567097	-0.15279518	0.58161525	0.68357084	-0.30159595	0.65963587	0.75321019	0.074560787	0.65118427	0.79586393	-0.25015966	0.70168576	0.83277325	-0.0079269561	0.48130671	0.83360953	-0.10041995	0.71700195	1.2869481	-0.22711489	0.6271733	1.3058776	0.047614988	0.6019991	1.3225007	-0.10805263	0.73404631	0.99066162	-0.41795744	0.3834973	1.099667	0.16009827	0.98431491	0.95459939	-0.4035618	0.26885461	1.1179873	0.38353919
312	1.244	0.19638413	0.058907032	-0.18151768	0.86847973	0.039365393	-0.092738981	0.2143267	0.19572155	-0.22868666	0.72443269	0.05301232	-0.073994013	0.25247096	0.18744075	-0.15304303	0.75511753	0.077980453	-0.15561486	0.18606354	0.25108646	-0.17594792	0.67601325	0.031068282	-0.12466097	0.5655748	0.31320715	-0.29383603	0.8684993	0.40969854	-0.025651436	0.58673601	0.27391933	-0.17783101	0.87956789	0.43446911	-0.15227821	0.58831457	0.68359701	-0.3018333	0.66453311	0.75259294	0.074428899	0.6573083	0.79571188	-0.25037632	0.70670511	0.83247847	-0.0080635005	0.48689143	0.83316616	-0.1002033	0.72271631	1.2862128	-0.22805791	0.63301686	1.3050896	0.047332675	0.60768758	1.3219937	-0.10863539	0.73545273	0.98891318	-0.41772838	0.39207459	1.0951897	0.15970008	0.98540908	0.9477149	-0.40494562	0.27717529	1.1089797	0.38319909
313	1.248	0.20718983	0.063792738	-0.18541832	0.86847708	0.039360147	-0.092577552	0.22640661	0.20081419	-0.23090584	0.72450784	0.05297233	-0.073989634	0.26431025	0.19144207	-0.15512458	0.75540706	0.077933631	-0.15554993	0.19855146	0.25598313	-0.17765569	0.67607841	0.031198763	-0.12477163	0.5785681	0.31331863	-0.29573206	0.87245903	0.40872143	-0.024989739	0.59880886	0.27428918	-0.17982746	0.88333361	0.43319622	-0.15175178	0.59481648	0.68373311	-0.30204255	0.66933463	0.75195771	0.07429136	0.66340521	0.79563491	-0.25053428	0.71170533	0.83219906	-0.0082581774	0.49247686	0.83281426	-0.099967677	0.72832726	1.2855699	-0.22904967	0.63879085	1.3043686	0.04707435	0.61329718	1.3215436	-0.10928196	0.73680271	0.98727833	-0.417551	0.40066878	1.0907884	0.15923722	0.9863003	0.94087821	-0.40633114	0.28570101	1.0999601	0.38281585
314	1.252	0.21828407	0.068520899	-0.1893719	0.86847037	0.039352331	-0.092425161	0.23866356	0.2056295	-0.23320342	0.72457703	0.052941704	-0.073989003	0.27628158	0.19531827	-0.15726882	0.75567956	0.077889914	-0.15548834	0.2110769	0.26064223	-0.17944593	0.6761392	0.031337076	-0.12487996	0.59153416	0.31358536	-0.29761485	0.87615536	0.40766906	-0.024372057	0.61106498	0.27477225	-0.18158357	0.88705501	0.43188818	-0.15122377	0.60114491	0.68395785	-0.3022275	0.67404819	0.75132389	0.074168239	0.66944416	0.7956238	-0.25063014	0.71667471	0.8319283	-0.0084901505	0.49808775	0.83261321	-0.099750165	0.73383788	1.2850107	-0.23008258	0.64449081	1.3037176	0.046836825	0.61880881	1.3211999	-0.10998696	0.7381406	0.98576288	-0.41734458	0.40927452	1.0864659	0.15871596	0.98693828	0.93413894	-0.40774916	0.29445975	1.0909546	0.3823972
315	1.256	0.22967606	0.073065366	-0.19332802	0.86845318	0.039342932	-0.092284196	0.25099925	0.21020064	-0.23548593	0.72463579	0.052923038	-0.073996652	0.28835417	0.19909065	-0.15945511	0.75592369	0.077851928	-0.15543243	0.22359121	0.26505297	-0.18128872	0.67618581	0.031486261	-0.1249863	0.60443823	0.31400119	-0.29945455	0.87957519	0.40651896	-0.023818659	0.62352128	0.27536665	-0.18313295	0.89072666	0.43056414	-0.15070986	0.60732261	0.68424685	-0.30240022	0.67868393	0.75070437	0.074083461	0.67539747	0.79566564	-0.25065336	0.72161806	0.83166408	-0.0087316476	0.50363051	0.83253969	-0.099568496	0.73925371	1.2845296	-0.23114526	0.6501035	1.3031341	0.046605859	0.62423538	1.320977	-0.11072663	0.73947926	0.98435947	-0.41704642	0.41789015	1.0822281	0.15813437	0.98730879	0.9275243	-0.40919854	0.30341954	1.0819891	0.38191646
316	1.26	0.2413591	0.077389449	-0.19720579	0.86842225	0.039333364	-0.092157818	0.26336523	0.21454781	-0.23771952	0.72468493	0.052917499	-0.074018281	0.30048713	0.2027634	-0.16165538	0.75613632	0.077822291	-0.15538528	0.23607186	0.26921417	-0.1832088	0.67621485	0.031648102	-0.12509184	0.61725762	0.3145398	-0.30118469	0.88272614	0.40524339	-0.023351263	0.63612754	0.27604914	-0.18464602	0.89432581	0.4292255	-0.1502318	0.61336692	0.68457887	-0.30257322	0.6832441	0.75010408	0.074060464	0.68122437	0.79575727	-0.25060548	0.72654749	0.83140478	-0.0089524162	0.5089568	0.83253821	-0.099433945	0.7445792	1.2841237	-0.23223024	0.65562359	1.3026131	0.046373202	0.62960123	1.320853	-0.11148249	0.7407892	0.98302503	-0.41666365	0.42651265	1.0780839	0.15748101	0.98744759	0.9210649	-0.41067214	0.31249625	1.073071	0.38132184
317	1.264	0.25334203	0.081470851	-0.2009747	0.86838016	0.039323436	-0.092049074	0.27578348	0.21866568	-0.23994462	0.72472727	0.052925912	-0.074057297	0.31263876	0.20633408	-0.16384359	0.75632344	0.077799939	-0.15535129	0.24852101	0.27313191	-0.18527634	0.6762295	0.031821763	-0.12520138	0.63001362	0.31518436	-0.30276064	0.88564418	0.40382271	-0.022979934	0.64883228	0.27680612	-0.18625882	0.89782637	0.42786637	-0.14980704	0.61929873	0.68494416	-0.30275257	0.6877228	0.74952549	0.074115473	0.68690043	0.79589949	-0.25051792	0.73147075	0.83115025	-0.0091279218	0.51400589	0.83257365	-0.09935605	0.74981546	1.2837932	-0.23333301	0.66105432	1.3021514	0.046137271	0.63491971	1.3207919	-0.11225808	0.74203404	0.98170804	-0.41623292	0.43512841	1.0740457	0.15674492	0.9874106	0.91479108	-0.41216653	0.32165759	1.0641806	0.38059302
318	1.268	0.26565743	0.085307023	-0.2046648	0.86833357	0.039311317	-0.091958983	0.28830792	0.22253206	-0.24222634	0.72476401	0.052951125	-0.074111525	0.32479826	0.20978718	-0.16601504	0.75649788	0.077780346	-0.15533574	0.26093349	0.27680787	-0.1875069	0.67623555	0.032003692	-0.1253247	0.64277159	0.31597185	-0.30422294	0.88838571	0.4022573	-0.022691205	0.66154784	0.27765621	-0.18794387	0.90121119	0.42648117	-0.14944551	0.62515669	0.68534165	-0.30293054	0.69211368	0.74897721	0.074252452	0.69247526	0.79608159	-0.25042364	0.73638549	0.83089748	-0.0092459741	0.51887644	0.8326488	-0.099343195	0.75496392	1.2835413	-0.23444752	0.66639693	1.3017466	0.045895089	0.64019172	1.3207701	-0.11306324	0.74321521	0.98040191	-0.41575729	0.44371395	1.0701267	0.15592393	0.98722774	0.9087045	-0.41367028	0.33096704	1.0552927	0.37976022
